<svg width="24" height="31" viewBox="0 0 24 31" fill="none" xmlns="http://www.w3.org/2000/svg">
<path d="M22 3.81255V28.3885L13.0058 23.1419L12.25 22.701L11.4942 23.1419L2.50003 28.3885V28.371V28.3244V28.2775V28.2302V28.1826V28.1347V28.0864V28.0378V27.9889V27.9397V27.8902V27.8403V27.7901V27.7396V27.6888V27.6377V27.5863V27.5345V27.4825V27.4302V27.3775V27.3246V27.2714V27.2178V27.164V27.1099V27.0555V27.0008V26.9459V26.8906V26.8351V26.7793V26.7232V26.6668V26.6102V26.5533V26.4961V26.4387V26.381V26.323V26.2648V26.2063V26.1476V26.0886V26.0293V25.9698V25.9101V25.8501V25.7899V25.7294V25.6687V25.6077V25.5465V25.4851V25.4234V25.3616V25.2994V25.2371V25.1745V25.1117V25.0487V24.9855V24.922V24.8584V24.7945V24.7304V24.6661V24.6016V24.5369V24.472V24.4069V24.3416V24.2761V24.2104V24.1445V24.0784V24.0121V23.9456V23.879V23.8122V23.7451V23.678V23.6106V23.5431V23.4753V23.4075V23.3394V23.2712V23.2028V23.1342V23.0655V22.9967V22.9276V22.8585V22.7891V22.7196V22.65V22.5802V22.5103V22.4402V22.37V22.2997V22.2292V22.1585V22.0878V22.0169V21.9459V21.8747V21.8035V21.7321V21.6606V21.5889V21.5172V21.4453V21.3733V21.3012V21.229V21.1567V21.0843V21.0118V20.9392V20.8665V20.7936V20.7207V20.6477V20.5746V20.5014V20.4282V20.3548V20.2814V20.2078V20.1342V20.0606V19.9868V19.913V19.8391V19.7651V19.6911V19.617V19.5428V19.4686V19.3943V19.3199V19.2455V19.171V19.0965V19.022V18.9474V18.8727V18.798V18.7233V18.6485V18.5737V18.4988V18.4239V18.349V18.2741V18.1991V18.1241V18.0491V17.974V17.899V17.8239V17.7488V17.6736V17.5985V17.5234V17.4482V17.3731V17.2979V17.2228V17.1476V17.0724V16.9973V16.9221V16.847V16.7719V16.6967V16.6216V16.5465V16.4715V16.3964V16.3214V16.2464V16.1714V16.0965V16.0215V15.9466V15.8718V15.797V15.7222V15.6474V15.5727V15.4981V15.4234V15.3489V15.2744V15.1999V15.1255V15.0511V14.9768V14.9026V14.8284V14.7543V14.6802V14.6062V14.5323V14.4585V14.3847V14.311V14.2374V14.1639V14.0904V14.017V13.9438V13.8705V13.7974V13.7244V13.6515V13.5787V13.5059V13.4333V13.3608V13.2883V13.216V13.1438V13.0717V12.9997V12.9278V12.856V12.7844V12.7128V12.6414V12.5701V12.499V12.4279V12.357V12.2862V12.2156V12.1451V12.0747V12.0045V11.9344V11.8644V11.7946V11.725V11.6554V11.5861V11.5169V11.4478V11.3789V11.3102V11.2416V11.1732V11.1049V11.0369V10.969V10.9012V10.8336V10.7662V10.699V10.632V10.5651V10.4985V10.432V10.3657V10.2995V10.2336V10.1679V10.1023V10.037V9.97185V9.9069V9.84216V9.77762V9.71329V9.64917V9.58526V9.52156V9.45807V9.3948V9.33175V9.26892V9.20632V9.14393V9.08177V9.01985V8.95815V8.89668V8.83545V8.77445V8.71369V8.65318V8.5929V8.53287V8.47309V8.41355V8.35426V8.29523V8.23645V8.17792V8.11966V8.06165V8.0039V7.94642V7.88921V7.83226V7.77559V7.71918V7.66305V7.6072V7.55162V7.49633V7.44131V7.38658V7.33214V7.27798V7.22411V7.17054V7.11726V7.06427V7.01158V6.9592V6.90711V6.85533V6.80385V6.75268V6.70182V6.65128V6.60104V6.55112V6.50152V6.45224V6.40329V6.35465V6.30634V6.25836V6.21071V6.16338V6.1164V6.06975V6.02343V5.97746V5.93182V5.88653V5.84159V5.79699V5.75275V5.70885V5.66531V5.62212V5.57929V5.53682V5.49471V5.45297V5.41159V5.37057V5.32993V5.28966V5.24976V5.21024V5.17109V5.13232V5.09394V5.05593V5.01832V4.98109V4.94425V4.9078V4.87174V4.83608V4.80081V4.76595V4.73148V4.69742V4.66377V4.63052V4.59768V4.56525V4.53324V4.50163V4.47045V4.43969V4.40934V4.37942V4.34993V4.32086V4.29222V4.26401V4.23623V4.20889V4.18199V4.15552V4.1295V4.10391V4.07878V4.05409V4.02985V4.00605V3.98272V3.95983V3.93741V3.91544V3.89393V3.87289V3.85231V3.8322V3.81255C2.50003 3.37979 2.49184 3.01055 2.48459 2.70503C2.48419 2.68816 2.48379 2.67157 2.48341 2.65524C2.48192 2.59283 2.48053 2.53433 2.47928 2.47929C2.53432 2.48054 2.59282 2.48194 2.65524 2.48342C2.67156 2.48381 2.68814 2.48421 2.70501 2.48461C3.01052 2.49186 3.37976 2.50005 3.81252 2.50005L13.4922 2.50006L18.5166 2.50005L20.0983 2.50005L20.5344 2.50005L20.6485 2.50005H20.6777H20.6851H20.6869H20.6874C20.6875 2.50005 20.6875 2.50005 20.6875 1.15516V2.50005C21.4124 2.50005 22 3.08766 22 3.81255Z" stroke="#FAFAFA" stroke-width="3"/>
</svg>
