<svg width="26" height="26" viewBox="0 0 26 26" fill="none" xmlns="http://www.w3.org/2000/svg">
<path d="M5.47225 18.3373L5.47222 18.3373L5.4692 18.3404C5.18695 18.6327 5.03076 19.0241 5.0343 19.4304C5.03783 19.8366 5.20079 20.2253 5.48808 20.5126C5.77537 20.7999 6.164 20.9628 6.57028 20.9664C6.97655 20.9699 7.36796 20.8137 7.6602 20.5314L7.66023 20.5315L7.6633 20.5284C9.06139 19.1303 11.4508 20.1196 11.4508 22.0969C11.4508 22.5078 11.6141 22.9019 11.9047 23.1925C12.1952 23.4831 12.5894 23.6464 13.0003 23.6464C13.4113 23.6464 13.8054 23.4831 14.096 23.1925C14.3866 22.9019 14.5498 22.5078 14.5498 22.0969C14.5498 20.1215 16.9377 19.1311 18.3359 20.527C18.4785 20.6742 18.6489 20.7916 18.8373 20.8726C19.0263 20.9538 19.2296 20.9965 19.4354 20.9983C19.6411 21.0001 19.8452 20.9609 20.0356 20.883C20.226 20.8051 20.399 20.69 20.5445 20.5445C20.69 20.399 20.8051 20.226 20.883 20.0356C20.9609 19.8452 21.0001 19.6411 20.9983 19.4354C20.9965 19.2296 20.9538 19.0263 20.8726 18.8373C20.7916 18.6489 20.6742 18.4785 20.527 18.3359C19.131 16.9376 20.1203 14.5498 22.0969 14.5498C22.5078 14.5498 22.9019 14.3866 23.1925 14.096C23.4831 13.8054 23.6464 13.4113 23.6464 13.0003C23.6464 12.5894 23.4831 12.1952 23.1925 11.9047C22.9019 11.6141 22.5078 11.4508 22.0969 11.4508C20.1208 11.4508 19.1304 9.06129 20.5284 7.6633L20.5284 7.66333L20.5314 7.6602C20.8137 7.36796 20.9699 6.97655 20.9664 6.57028C20.9628 6.164 20.7999 5.77537 20.5126 5.48808C20.2253 5.20079 19.8366 5.03783 19.4304 5.0343C19.0241 5.03076 18.6327 5.18695 18.3404 5.4692L18.3404 5.46917L18.3373 5.47225C16.9393 6.87034 14.5498 5.88101 14.5498 3.90379C14.5498 3.49283 14.3866 3.09871 14.096 2.80812C13.8054 2.51753 13.4113 2.35428 13.0003 2.35428C12.5894 2.35428 12.1952 2.51753 11.9047 2.80812C11.6141 3.09871 11.4508 3.49283 11.4508 3.90379C11.4508 5.87919 9.06291 6.86957 7.66472 5.47366C7.52211 5.32646 7.35171 5.209 7.16338 5.1281C6.97434 5.04689 6.77101 5.00415 6.56527 5.00236C6.35953 5.00057 6.15549 5.03978 5.96506 5.11769C5.77463 5.1956 5.60163 5.31065 5.45614 5.45614C5.31065 5.60163 5.1956 5.77463 5.11769 5.96506C5.03978 6.15549 5.00057 6.35953 5.00236 6.56527C5.00415 6.77101 5.04689 6.97434 5.1281 7.16338C5.209 7.35171 5.32646 7.52211 5.47366 7.66472C6.86967 9.06301 5.88035 11.4508 3.90379 11.4508C3.49283 11.4508 3.09871 11.6141 2.80812 11.9047C2.51753 12.1952 2.35428 12.5894 2.35428 13.0003C2.35428 13.4113 2.51753 13.8054 2.80812 14.096C3.09871 14.3866 3.49283 14.5498 3.90379 14.5498C5.87986 14.5498 6.87024 16.9394 5.47225 18.3373ZM8.949 3.80338L9.32529 4.12766L9.36154 3.63224C9.42879 2.71315 9.84136 1.85355 10.5164 1.22614C11.1914 0.598734 12.0788 0.25 13.0003 0.25C13.9219 0.25 14.8093 0.598734 15.4843 1.22614C16.1593 1.85355 16.5719 2.71315 16.6391 3.63224L16.6753 4.12662L17.0513 3.80365C17.7492 3.2043 18.6477 2.89068 19.5669 2.92559C20.4862 2.96049 21.3583 3.34134 22.0087 3.99189C22.6591 4.64243 23.0397 5.51465 23.0744 6.4339C23.1091 7.35314 22.7952 8.25157 22.1957 8.94928L21.8725 9.32543L22.3671 9.36154C23.2863 9.42864 24.1459 9.84107 24.7734 10.516C25.401 11.1909 25.7498 12.0782 25.75 12.9998C25.7502 13.9213 25.4016 14.8088 24.7743 15.4839C24.147 16.159 23.2874 16.5717 22.3684 16.6391L21.8741 16.6754L22.197 17.0513C22.7963 17.7492 23.11 18.6477 23.0751 19.5669C23.0402 20.4862 22.6593 21.3583 22.0088 22.0087C21.3582 22.6591 20.486 23.0397 19.5668 23.0744C18.6475 23.1091 17.7491 22.7952 17.0514 22.1957L16.6753 21.8726L16.6391 22.3671C16.5719 23.2862 16.1593 24.1458 15.4843 24.7732C14.8093 25.4006 13.9219 25.7493 13.0003 25.7493C12.0788 25.7493 11.1914 25.4006 10.5164 24.7732C9.84136 24.1458 9.42879 23.2862 9.36154 22.3671L9.32535 21.8726L8.94928 22.1957C8.25157 22.7952 7.35314 23.1091 6.4339 23.0744C5.51465 23.0397 4.64243 22.6591 3.99189 22.0087C3.34134 21.3583 2.96049 20.4862 2.92559 19.5669C2.89068 18.6477 3.2043 17.7492 3.80365 17.0513L4.12662 16.6753L3.63224 16.6391C2.71315 16.5719 1.85355 16.1593 1.22614 15.4843C0.598734 14.8093 0.25 13.9219 0.25 13.0003C0.25 12.0788 0.598734 11.1914 1.22614 10.5164C1.85355 9.84136 2.71315 9.42879 3.63224 9.36154L4.12766 9.32529L3.80338 8.949C3.2022 8.25141 2.88705 7.35229 2.92116 6.43203C2.95526 5.51177 3.33611 4.63845 3.98728 3.98728C4.63845 3.33611 5.51177 2.95526 6.43203 2.92116C7.35229 2.88705 8.25141 3.2022 8.949 3.80338Z" fill="#0D0D0D" stroke="white" stroke-width="0.5"/>
<path d="M13.0004 10.1513C12.2448 10.1513 11.5201 10.4515 10.9858 10.9858C10.4515 11.5201 10.1513 12.2447 10.1513 13.0003C10.1513 13.7559 10.4515 14.4806 10.9858 15.0149C11.5201 15.5492 12.2448 15.8493 13.0004 15.8493C13.756 15.8493 14.4806 15.5492 15.0149 15.0149C15.5492 14.4806 15.8494 13.7559 15.8494 13.0003C15.8494 12.2447 15.5492 11.5201 15.0149 10.9858C14.4806 10.4515 13.756 10.1513 13.0004 10.1513ZM9.50518 9.49901C9.96162 9.02642 10.5076 8.64947 11.1113 8.39015C11.715 8.13083 12.3642 7.99433 13.0212 7.98862C13.6782 7.98291 14.3298 8.10811 14.9379 8.3569C15.546 8.60569 16.0984 8.97309 16.563 9.43768C17.0276 9.90226 17.395 10.4547 17.6438 11.0628C17.8926 11.6709 18.0178 12.3225 18.0121 12.9795C18.0064 13.6364 17.8699 14.2857 17.6105 14.8894C17.3512 15.4931 16.9743 16.0391 16.5017 16.4955C15.5685 17.3968 14.3186 17.8956 13.0212 17.8843C11.7239 17.873 10.4829 17.3526 9.56545 16.4352C8.64805 15.5178 8.12767 14.2768 8.1164 12.9795C8.10512 11.6821 8.60386 10.4322 9.50518 9.49901Z" fill="#0D0D0D" stroke="white" stroke-width="0.5"/>
</svg>
